# xmcd
#
# Track frame offsets:
#	150
#	15654
#	42399
#	59268
#	75670
#	97299
#	109607
#	136603
#	148147
#	161470
#	174772
#	195859
#
# Disc length: 2839 seconds
#
# Revision: 0
# Processed by: cddbd v1.5.1PL2 Copyright (c) Steve Scherf et al.
# Submitted via: dBpowerAMP V4.0
#
DISCID=920b150c
DTITLE=Bob Brozman - Metric Time
DYEAR=2003
DGENRE=Blues
TTITLE0=Already Gone
TTITLE1=Black Stone Blues
TTITLE2=Music For Slow Surfers
TTITLE3=Telkwa
TTITLE4=In the Bed
TTITLE5=Girl
TTITLE6=East
TTITLE7=Haley's Aalap
TTITLE8=Spaghetti Wastern
TTITLE9=Malaxico
TTITLE10=Sans Humanite'
TTITLE11=3-Hop
EXTD=
EXTT0=
EXTT1=
EXTT2=
EXTT3=
EXTT4=
EXTT5=
EXTT6=
EXTT7=
EXTT8=
EXTT9=
EXTT10=
EXTT11=
PLAYORDER=
